<svg xmlns="http://www.w3.org/2000/svg" viewBox="2993 220 23.957 23.682">
  <defs>
    <style>
      .cls-1 {
        fill: #00b1ff;
      }

      .cls-2 {
        fill: #009cdf;
      }
    </style>
  </defs>
  <g id="new_message_icon" data-name="new message icon" transform="translate(2993 219.982)">
    <path id="path" class="cls-1" d="M19,20.7a1,1,0,0,1-1,1H2.9a1,1,0,0,1-1-1V6.3A1.09,1.09,0,0,1,3,5.3h9l2-2H3a3.009,3.009,0,0,0-3,3V20.7a3.009,3.009,0,0,0,3,3H18a3.009,3.009,0,0,0,3-3V9.6l-2,2Z"/>
    <path id="path-2" data-name="path" class="cls-2" d="M8.8,13v2.1l2.3-.2L21.5,4.5,19.4,2.4Z"/>
    <rect id="rectangle" class="cls-1" width="2" height="3.3" transform="translate(20.207 1.436) rotate(-45.134)"/>
  </g>
</svg>
